<svg width="215" height="178" viewBox="0 0 215 178" fill="none" xmlns="http://www.w3.org/2000/svg">
<g clip-path="url(#clip0_142_2)">
<path d="M145.272 19.2132L149.004 15.8487C149.004 15.8487 151.815 18.6643 155.671 18.6643C157.934 18.6643 159.349 17.9205 159.349 16.7695C159.349 14.3258 145.591 14.6446 145.591 6.99476C145.591 2.88652 148.862 -0.0175781 154.892 -0.0175781C161.435 -0.0175781 165.202 4.55106 165.202 4.55106L161.471 7.91557C161.471 7.91557 158.624 5.10001 154.751 5.10001C152.541 5.10001 151.073 5.84374 151.073 6.99476C151.073 9.43845 164.884 9.11971 164.884 16.7695C164.884 20.8778 161.577 23.7819 155.547 23.7819C149.057 23.7819 145.29 19.2132 145.29 19.2132H145.272Z" fill="black"/>
<path d="M71.5666 155.228C71.5666 161.78 66.2791 167.127 59.683 167.127C57.2957 167.127 55.0853 166.437 53.2461 165.197V178.018H47.3574V143.718H53.2461V145.24C55.0853 144.036 57.2957 143.346 59.683 143.346C66.2614 143.346 71.5666 148.64 71.5666 155.245V155.228ZM65.501 155.228C65.501 151.491 62.9722 148.871 59.5239 148.871C56.0755 148.871 53.5468 151.491 53.5468 155.228C53.5468 158.964 56.0402 161.549 59.5239 161.549C63.0076 161.549 65.501 158.929 65.501 155.228Z" fill="black"/>
<path d="M14.625 155.228C14.625 148.676 19.9655 143.328 26.5085 143.328C33.0516 143.328 38.3921 148.676 38.3921 155.228C38.3921 161.78 33.1046 167.128 26.5085 167.128C19.9125 167.128 14.625 161.78 14.625 155.228ZM32.7156 155.228C32.7156 151.545 30.1868 148.871 26.7384 148.871C23.2901 148.871 20.7613 151.545 20.7613 155.228C20.7613 158.911 23.2547 161.585 26.7384 161.585C30.2221 161.585 32.7156 158.911 32.7156 155.228Z" fill="black"/>
<path d="M16.2868 106.514C16.2868 106.514 13.7934 109.276 9.79684 109.276C5.8003 109.276 2.79405 107.346 2.79405 102.547V91.1608H0V85.8661H2.81173V78.1631L8.70044 78.0215V85.8661H14.1294V91.1608H8.70044V100.741C8.70044 102.635 9.79684 103.787 11.0878 103.787C12.6439 103.787 13.758 102.547 13.758 101.803L16.2868 106.514Z" fill="black"/>
<path d="M215 96.0481V108.904H208.97V96.1897C208.97 93.1085 206.989 90.9305 204.177 90.9305C201.366 90.9305 199.35 93.144 199.35 96.2251V108.904H193.461V85.866H199.35V88.168C201.012 86.5035 203.222 85.4941 205.521 85.4941C211.18 85.4941 215 90.0628 215 96.0481Z" fill="black"/>
<path d="M149.057 96.0481V108.904H143.027V96.1897C143.027 93.1085 141.047 90.9305 138.235 90.9305C135.423 90.9305 133.407 93.144 133.407 96.2251V108.904H127.519V85.866H133.407V88.168C135.07 86.5035 137.28 85.4941 139.579 85.4941C145.238 85.4941 149.057 90.0628 149.057 96.0481Z" fill="black"/>
<path d="M159.313 97.3763C159.313 90.8244 164.654 85.4766 171.197 85.4766C177.74 85.4766 183.081 90.8244 183.081 97.3763C183.081 103.928 177.793 109.276 171.197 109.276C164.601 109.276 159.313 103.928 159.313 97.3763ZM177.404 97.3763C177.404 93.693 174.875 91.0191 171.427 91.0191C167.979 91.0191 165.45 93.693 165.45 97.3763C165.45 101.06 167.943 103.733 171.427 103.733C174.911 103.733 177.404 101.06 177.404 97.3763Z" fill="black"/>
<path d="M118.818 28.7051L44.917 72.0186" stroke="black" stroke-width="0.99" stroke-miterlimit="10"/>
</g>
<defs>
<clipPath id="clip0_142_2">
<rect width="215" height="178" fill="white"/>
</clipPath>
</defs>
</svg>
